# xmcd
#
# Track frame offsets:
#	150
#	29942
#	37790
#	57527
#	86010
#	94535
#	131867
#	134607
#	151332
#	157672
#	189755
#	209422
#	215565
#	247237
#	256570
#
# Disc length: 4205 seconds
#
# Revision: 4
# Processed by: cddbd v1.5.2PL0 Copyright (c) Steve Scherf et al.
# Submitted via: EZCDAudioConverter 2.1.7.1
#
DISCID=d1106b0f
DTITLE=Paul Kantner • Jefferson Starship - Blows Against The Empire
DYEAR=1970
DGENRE=
TTITLE0=Mau Mau (Amerikon)
TTITLE1=The Baby Tree
TTITLE2=Let's Go Together
TTITLE3=A Child Is Coming
TTITLE4=Sunrise
TTITLE5=Hijack
TTITLE6=Home
TTITLE7=Have You Seen The Stars Tonite
TTITLE8=X-M
TTITLE9=Starship
TTITLE10=Let's Go Together [Alternate Lyrics]
TTITLE11=Sunrise [Grace's Acoustic Demo Take 8]
TTITLE12=Hijack [Paul's Acoustic Demo Take 5]
TTITLE13=Jerry Garcia and Mickey Hart - SFX
TTITLE14=Starship [Live]
EXTD=
EXTT0=
EXTT1=
EXTT2=
EXTT3=
EXTT4=
EXTT5=
EXTT6=
EXTT7=
EXTT8=
EXTT9=
EXTT10=
EXTT11=
EXTT12=
EXTT13=
EXTT14=
PLAYORDER=
